<mxfile host="app.diagrams.net" agent="Mozilla/5.0 (X11; Linux x86_64; rv:134.0) Gecko/20100101 Firefox/134.0" version="28.2.4">
  <diagram name="Página-1" id="RchJ3ERw50SeBxtAvCOJ">
    <mxGraphModel dx="1426" dy="754" grid="1" gridSize="10" guides="1" tooltips="1" connect="1" arrows="1" fold="1" page="1" pageScale="1" pageWidth="827" pageHeight="1169" math="0" shadow="0">
      <root>
        <mxCell id="0" />
        <mxCell id="1" parent="0" />
        <mxCell id="5TXuB44-q7grH3ncmnl7-1" value="&lt;div&gt;PELICULAS&lt;/div&gt;" style="whiteSpace=wrap;html=1;aspect=fixed;labelBackgroundColor=none;textShadow=0;fillColor=#dae8fc;strokeColor=#6c8ebf;" vertex="1" parent="1">
          <mxGeometry x="177" y="320" width="100" height="100" as="geometry" />
        </mxCell>
        <mxCell id="5TXuB44-q7grH3ncmnl7-2" value="&lt;div&gt;DIRECTORES&lt;/div&gt;" style="whiteSpace=wrap;html=1;aspect=fixed;labelBackgroundColor=#FFFFFF;fillColor=#DAE8FC;strokeColor=#6c8ebf;labelBorderColor=none;textShadow=0;" vertex="1" parent="1">
          <mxGeometry x="567" y="320" width="100" height="100" as="geometry" />
        </mxCell>
        <mxCell id="5TXuB44-q7grH3ncmnl7-3" value="ACTORES" style="whiteSpace=wrap;html=1;aspect=fixed;fillColor=#dae8fc;strokeColor=#6c8ebf;" vertex="1" parent="1">
          <mxGeometry x="411" y="540" width="100" height="100" as="geometry" />
        </mxCell>
        <mxCell id="5TXuB44-q7grH3ncmnl7-4" value="AÑO DE LANZAMIENTO" style="ellipse;whiteSpace=wrap;html=1;fontSize=9;fillColor=#647687;fontColor=#ffffff;strokeColor=#314354;" vertex="1" parent="1">
          <mxGeometry x="187" y="230" width="80" height="70" as="geometry" />
        </mxCell>
        <mxCell id="5TXuB44-q7grH3ncmnl7-5" value="NACIONALIDAD" style="ellipse;whiteSpace=wrap;html=1;fontSize=8;fillColor=#647687;fontColor=#ffffff;strokeColor=#314354;" vertex="1" parent="1">
          <mxGeometry x="57" y="335" width="70" height="70" as="geometry" />
        </mxCell>
        <mxCell id="5TXuB44-q7grH3ncmnl7-6" value="&lt;div&gt;AÑO NACIMIENTO&lt;/div&gt;" style="ellipse;whiteSpace=wrap;html=1;fillColor=#fff2cc;strokeColor=#d6b656;" vertex="1" parent="1">
          <mxGeometry x="577" y="220" width="90" height="80" as="geometry" />
        </mxCell>
        <mxCell id="5TXuB44-q7grH3ncmnl7-7" value="NOMBRE" style="ellipse;whiteSpace=wrap;html=1;fillColor=#fff2cc;strokeColor=#d6b656;" vertex="1" parent="1">
          <mxGeometry x="679.97" y="330" width="90" height="80" as="geometry" />
        </mxCell>
        <mxCell id="5TXuB44-q7grH3ncmnl7-8" value="PAIS ORIGEN" style="ellipse;whiteSpace=wrap;html=1;fillColor=#fff2cc;strokeColor=#d6b656;" vertex="1" parent="1">
          <mxGeometry x="619.97" y="440" width="90" height="80" as="geometry" />
        </mxCell>
        <mxCell id="5TXuB44-q7grH3ncmnl7-10" value="NACIONALIDAD" style="ellipse;whiteSpace=wrap;html=1;fontSize=9;fillColor=#d5e8d4;strokeColor=#82b366;" vertex="1" parent="1">
          <mxGeometry x="459.97" y="680" width="80" height="80" as="geometry" />
        </mxCell>
        <mxCell id="5TXuB44-q7grH3ncmnl7-11" value="" style="endArrow=none;html=1;rounded=0;exitX=-0.03;exitY=0.62;exitDx=0;exitDy=0;exitPerimeter=0;" edge="1" parent="1" source="5TXuB44-q7grH3ncmnl7-1" target="5TXuB44-q7grH3ncmnl7-5">
          <mxGeometry width="50" height="50" relative="1" as="geometry">
            <mxPoint x="277" y="380" as="sourcePoint" />
            <mxPoint x="307" y="340" as="targetPoint" />
          </mxGeometry>
        </mxCell>
        <mxCell id="5TXuB44-q7grH3ncmnl7-12" value="" style="endArrow=none;html=1;rounded=0;exitX=0.75;exitY=0;exitDx=0;exitDy=0;" edge="1" parent="1" source="5TXuB44-q7grH3ncmnl7-1">
          <mxGeometry width="50" height="50" relative="1" as="geometry">
            <mxPoint x="297" y="300" as="sourcePoint" />
            <mxPoint x="237" y="300" as="targetPoint" />
          </mxGeometry>
        </mxCell>
        <mxCell id="5TXuB44-q7grH3ncmnl7-13" value="" style="endArrow=none;html=1;rounded=0;entryX=0.75;entryY=1;entryDx=0;entryDy=0;" edge="1" parent="1" target="5TXuB44-q7grH3ncmnl7-3">
          <mxGeometry width="50" height="50" relative="1" as="geometry">
            <mxPoint x="491.5512663808545" y="680.3728464062151" as="sourcePoint" />
            <mxPoint x="377" y="555" as="targetPoint" />
          </mxGeometry>
        </mxCell>
        <mxCell id="5TXuB44-q7grH3ncmnl7-14" value="" style="endArrow=none;html=1;rounded=0;entryX=0;entryY=1;entryDx=0;entryDy=0;" edge="1" parent="1" target="5TXuB44-q7grH3ncmnl7-30">
          <mxGeometry width="50" height="50" relative="1" as="geometry">
            <mxPoint x="337" y="461.72" as="sourcePoint" />
            <mxPoint x="380.1801948466052" y="460.00427124746216" as="targetPoint" />
            <Array as="points" />
          </mxGeometry>
        </mxCell>
        <mxCell id="5TXuB44-q7grH3ncmnl7-15" value="" style="endArrow=none;html=1;rounded=0;entryX=0.033;entryY=0.613;entryDx=0;entryDy=0;entryPerimeter=0;" edge="1" parent="1">
          <mxGeometry width="50" height="50" relative="1" as="geometry">
            <mxPoint x="667" y="392" as="sourcePoint" />
            <mxPoint x="679.97" y="379.03999999999996" as="targetPoint" />
            <Array as="points" />
          </mxGeometry>
        </mxCell>
        <mxCell id="5TXuB44-q7grH3ncmnl7-16" value="" style="endArrow=none;html=1;rounded=0;entryX=0;entryY=1;entryDx=0;entryDy=0;exitX=0.5;exitY=0;exitDx=0;exitDy=0;" edge="1" parent="1" source="5TXuB44-q7grH3ncmnl7-2">
          <mxGeometry width="50" height="50" relative="1" as="geometry">
            <mxPoint x="567" y="302" as="sourcePoint" />
            <mxPoint x="610" y="300" as="targetPoint" />
            <Array as="points" />
          </mxGeometry>
        </mxCell>
        <mxCell id="5TXuB44-q7grH3ncmnl7-17" value="" style="endArrow=none;html=1;rounded=0;entryX=0.5;entryY=1;entryDx=0;entryDy=0;exitX=0.5;exitY=0;exitDx=0;exitDy=0;" edge="1" parent="1" target="5TXuB44-q7grH3ncmnl7-2">
          <mxGeometry width="50" height="50" relative="1" as="geometry">
            <mxPoint x="662" y="440" as="sourcePoint" />
            <mxPoint x="567" y="390" as="targetPoint" />
            <Array as="points" />
          </mxGeometry>
        </mxCell>
        <mxCell id="5TXuB44-q7grH3ncmnl7-18" value="" style="endArrow=none;dashed=1;html=1;dashPattern=1 3;strokeWidth=2;rounded=0;exitX=0;exitY=0;exitDx=0;exitDy=0;" edge="1" parent="1" source="5TXuB44-q7grH3ncmnl7-27">
          <mxGeometry width="50" height="50" relative="1" as="geometry">
            <mxPoint x="227" y="470" as="sourcePoint" />
            <mxPoint x="277" y="420" as="targetPoint" />
          </mxGeometry>
        </mxCell>
        <mxCell id="5TXuB44-q7grH3ncmnl7-19" value="" style="endArrow=none;dashed=1;html=1;dashPattern=1 3;strokeWidth=2;rounded=0;exitX=1;exitY=0;exitDx=0;exitDy=0;" edge="1" parent="1" source="5TXuB44-q7grH3ncmnl7-3">
          <mxGeometry width="50" height="50" relative="1" as="geometry">
            <mxPoint x="517" y="470" as="sourcePoint" />
            <mxPoint x="567" y="420" as="targetPoint" />
          </mxGeometry>
        </mxCell>
        <mxCell id="5TXuB44-q7grH3ncmnl7-20" value="" style="endArrow=none;dashed=1;html=1;dashPattern=1 3;strokeWidth=2;rounded=0;exitX=1;exitY=0;exitDx=0;exitDy=0;" edge="1" parent="1">
          <mxGeometry width="50" height="50" relative="1" as="geometry">
            <mxPoint x="277" y="369.5" as="sourcePoint" />
            <mxPoint x="567" y="369.5" as="targetPoint" />
            <Array as="points">
              <mxPoint x="427" y="369.5" />
            </Array>
          </mxGeometry>
        </mxCell>
        <mxCell id="5TXuB44-q7grH3ncmnl7-23" value="DURACION" style="ellipse;whiteSpace=wrap;html=1;fontSize=9;fillColor=#647687;fontColor=#ffffff;strokeColor=#314354;" vertex="1" parent="1">
          <mxGeometry x="117" y="450" width="80" height="70" as="geometry" />
        </mxCell>
        <mxCell id="5TXuB44-q7grH3ncmnl7-24" value="" style="endArrow=none;html=1;rounded=0;exitX=0.938;exitY=0.214;exitDx=0;exitDy=0;exitPerimeter=0;" edge="1" parent="1" source="5TXuB44-q7grH3ncmnl7-23">
          <mxGeometry width="50" height="50" relative="1" as="geometry">
            <mxPoint x="187" y="470" as="sourcePoint" />
            <mxPoint x="237" y="420" as="targetPoint" />
          </mxGeometry>
        </mxCell>
        <mxCell id="5TXuB44-q7grH3ncmnl7-25" value="BLANCO Y NEGRO" style="ellipse;whiteSpace=wrap;html=1;fontSize=9;fillColor=#647687;fontColor=#ffffff;strokeColor=#314354;" vertex="1" parent="1">
          <mxGeometry x="77" y="225" width="80" height="70" as="geometry" />
        </mxCell>
        <mxCell id="5TXuB44-q7grH3ncmnl7-26" value="" style="endArrow=none;html=1;rounded=0;exitX=0.11;exitY=0.01;exitDx=0;exitDy=0;exitPerimeter=0;" edge="1" parent="1" source="5TXuB44-q7grH3ncmnl7-1">
          <mxGeometry width="50" height="50" relative="1" as="geometry">
            <mxPoint x="187" y="295" as="sourcePoint" />
            <mxPoint x="140" y="288" as="targetPoint" />
          </mxGeometry>
        </mxCell>
        <mxCell id="5TXuB44-q7grH3ncmnl7-28" value="" style="endArrow=none;dashed=1;html=1;dashPattern=1 3;strokeWidth=2;rounded=0;exitX=0;exitY=0;exitDx=0;exitDy=0;" edge="1" parent="1" source="5TXuB44-q7grH3ncmnl7-3" target="5TXuB44-q7grH3ncmnl7-27">
          <mxGeometry width="50" height="50" relative="1" as="geometry">
            <mxPoint x="377" y="520" as="sourcePoint" />
            <mxPoint x="277" y="420" as="targetPoint" />
          </mxGeometry>
        </mxCell>
        <mxCell id="5TXuB44-q7grH3ncmnl7-27" value="PERSONAJES" style="rhombus;whiteSpace=wrap;html=1;fontSize=9;fillColor=#fa6800;fontColor=#000000;strokeColor=#C73500;" vertex="1" parent="1">
          <mxGeometry x="277" y="430" width="80" height="90" as="geometry" />
        </mxCell>
        <mxCell id="5TXuB44-q7grH3ncmnl7-30" value="NOMBRE DEL PERSONAJE" style="ellipse;whiteSpace=wrap;html=1;fillColor=#fad9d5;strokeColor=#ae4132;" vertex="1" parent="1">
          <mxGeometry x="367" y="390" width="80" height="70" as="geometry" />
        </mxCell>
        <mxCell id="5TXuB44-q7grH3ncmnl7-32" value="" style="edgeStyle=orthogonalEdgeStyle;rounded=0;orthogonalLoop=1;jettySize=auto;html=1;" edge="1" parent="1" source="5TXuB44-q7grH3ncmnl7-31" target="5TXuB44-q7grH3ncmnl7-27">
          <mxGeometry relative="1" as="geometry" />
        </mxCell>
        <mxCell id="5TXuB44-q7grH3ncmnl7-31" value="ID PELICULA" style="ellipse;whiteSpace=wrap;html=1;fillColor=#fad9d5;strokeColor=#ae4132;fontSize=9;" vertex="1" parent="1">
          <mxGeometry x="217" y="510" width="50" height="50" as="geometry" />
        </mxCell>
        <mxCell id="5TXuB44-q7grH3ncmnl7-34" value="" style="edgeStyle=orthogonalEdgeStyle;rounded=0;orthogonalLoop=1;jettySize=auto;html=1;" edge="1" parent="1" source="5TXuB44-q7grH3ncmnl7-33" target="5TXuB44-q7grH3ncmnl7-27">
          <mxGeometry relative="1" as="geometry" />
        </mxCell>
        <mxCell id="5TXuB44-q7grH3ncmnl7-33" value="ID ACTORES" style="ellipse;whiteSpace=wrap;html=1;fillColor=#fad9d5;strokeColor=#ae4132;fontSize=9;" vertex="1" parent="1">
          <mxGeometry x="292" y="550" width="50" height="50" as="geometry" />
        </mxCell>
        <mxCell id="5TXuB44-q7grH3ncmnl7-36" value="" style="edgeStyle=orthogonalEdgeStyle;rounded=0;orthogonalLoop=1;jettySize=auto;html=1;" edge="1" parent="1" source="5TXuB44-q7grH3ncmnl7-35" target="5TXuB44-q7grH3ncmnl7-3">
          <mxGeometry relative="1" as="geometry" />
        </mxCell>
        <mxCell id="5TXuB44-q7grH3ncmnl7-35" value="EDAD" style="ellipse;whiteSpace=wrap;html=1;fontSize=12;fillColor=#d5e8d4;strokeColor=#82b366;" vertex="1" parent="1">
          <mxGeometry x="557" y="600" width="80" height="80" as="geometry" />
        </mxCell>
        <mxCell id="5TXuB44-q7grH3ncmnl7-37" value="&lt;div&gt;&lt;font style=&quot;font-size: 11px;&quot;&gt;AÑO&amp;nbsp;&lt;/font&gt;&lt;/div&gt;&lt;div&gt;&lt;font style=&quot;font-size: 11px;&quot;&gt;NACIMIENTO&lt;/font&gt;&lt;/div&gt;" style="ellipse;whiteSpace=wrap;html=1;fontSize=8;fillColor=#d5e8d4;strokeColor=#82b366;" vertex="1" parent="1">
          <mxGeometry x="327" y="650" width="80" height="80" as="geometry" />
        </mxCell>
        <mxCell id="5TXuB44-q7grH3ncmnl7-40" style="edgeStyle=orthogonalEdgeStyle;rounded=0;orthogonalLoop=1;jettySize=auto;html=1;entryX=0.16;entryY=0.99;entryDx=0;entryDy=0;entryPerimeter=0;" edge="1" parent="1" source="5TXuB44-q7grH3ncmnl7-37" target="5TXuB44-q7grH3ncmnl7-3">
          <mxGeometry relative="1" as="geometry" />
        </mxCell>
        <mxCell id="5TXuB44-q7grH3ncmnl7-42" value="&lt;div&gt;CONCEPTO DE UNA&amp;nbsp;&lt;/div&gt;&lt;div&gt;BASE DE DATOS&lt;/div&gt;" style="rounded=0;whiteSpace=wrap;html=1;fontSize=19;fillColor=#f8cecc;strokeColor=#b85450;gradientColor=#ea6b66;" vertex="1" parent="1">
          <mxGeometry x="244" y="50" width="340" height="100" as="geometry" />
        </mxCell>
      </root>
    </mxGraphModel>
  </diagram>
</mxfile>
